# xmcd
#
# Track frame offsets:
#	150
#	22457
#	48937
#	70335
#	92060
#	111955
#	135577
#	158205
#	191967
#	240462
#	261727
#	279132
#
# Disc length: 4162 seconds
#
# Revision: 1
# Processed by: cddbd v1.5.2PL0 Copyright (c) Steve Scherf et al.
# Submitted via: audiograbber 1.83.01
#
DISCID=b310400c
DTITLE=Mike Russel - CD-NH 1129 Mike Russel - Black Heritage
DYEAR=1994
DGENRE=Soul
TTITLE0=Black Heritage - Theme
TTITLE1=I Wanna Go Back To Hollywood
TTITLE2=Hello Fellas
TTITLE3=Chances
TTITLE4=Soul Food
TTITLE5=The Fall
TTITLE6=Heaven
TTITLE7=Bu Bu Gree Gree
TTITLE8=Front Line II Parts 1&2
TTITLE9=Fatou Rama
TTITLE10=Odeylo (Live)
TTITLE11=Don't Touch My Friend (Live)
EXTD=
EXTT0=
EXTT1=
EXTT2=
EXTT3=
EXTT4=
EXTT5=
EXTT6=
EXTT7=
EXTT8=
EXTT9=
EXTT10=
EXTT11=
PLAYORDER=
